<?xml version="1.0" encoding="UTF-8" standalone="no"?><svg xmlns="http://www.w3.org/2000/svg" xmlns:xlink="http://www.w3.org/1999/xlink" contentScriptType="application/ecmascript" contentStyleType="text/css" height="725px" preserveAspectRatio="none" style="width:1284px;height:725px;background:#00000000;" version="1.1" viewBox="0 0 1284 725" width="1284.375px" zoomAndPan="magnify"><defs><linearGradient id="gjocp24enthc60" x1="50%" x2="50%" y1="0%" y2="100%"><stop offset="0%" stop-color="#DBDBDB"/><stop offset="100%" stop-color="#D2D2D2"/></linearGradient></defs><g><!--MD5=[dfef79abc52578acbe23b4fd575ab168]
cluster 3rdparty--><path d="M812.6042,327.654 C820.1089,313.9796 833.9029,309.0798 843.6505,325.3267 C855.0055,308.0123 869.2948,309.8784 877.2741,328.4863 C884.0062,317.1761 893.9285,314.1096 903.1524,325.6665 C913.3501,306.9252 924.1771,309.8627 936.6257,323.3271 C945.1241,308.6159 953.4218,309.543 963.1795,322.101 C970.1834,307.0298 986.4741,301.9896 997.5232,317.5683 C1006.8005,305.9143 1017.7997,308.3099 1024.9291,320.0813 C1032.3231,307.221 1046.3148,305.8167 1054.5352,319.1471 C1067.0026,304.3686 1077.941,302.4337 1088.1947,321.3579 C1095.3973,308.3413 1108.8996,306.9253 1115.8581,321.6017 C1127.0274,309.2053 1138.8909,312.9694 1145.7168,326.587 C1152.3405,308.1385 1168.6655,307.8462 1178.4304,323.5808 C1190.0278,309.4105 1201.758,313.881 1207.9537,329.0217 C1219.3419,313.6656 1233.5264,316.1844 1240.625,333.3333 C1241.1938,332.6939 1241.8491,332.6987 1242.1533,333.5964 C1258.8214,340.052 1259.9368,356.8445 1246.9474,367.4945 C1266.1113,373.0529 1272.7974,386.5285 1257.5364,402.5002 C1269.6597,414.6506 1270.6654,431.7901 1250.2856,437.1364 C1264.6368,457.4019 1254.4986,469.4784 1233.3333,472.9167 C1234.2939,471.8429 1235.2266,472.1403 1235.7259,473.3914 C1227.6731,488.6225 1213.1325,489.309 1204.6223,473.8551 C1198.1723,485.9813 1185.8544,489.9461 1176.5349,477.08 C1167.979,493.2228 1155.672,489.7443 1146.5372,477.6959 C1135.3952,491.9789 1124.8737,493.3953 1114.5415,476.8552 C1107.2235,492.7084 1092.8069,492.8024 1085.1757,477.1471 C1080.0816,491.7121 1067.2826,493.3924 1058.1091,481.2872 C1048.2909,494.7418 1033.4776,494.8626 1026.5374,478.2639 C1018.7465,492.9973 1003.625,495.0446 994.3195,479.8969 C986.091,491.6797 972.3613,490.7656 965.8862,477.8763 C959.162,493.5205 944.878,493.8963 936.5393,479.451 C926.9021,491.8753 913.8587,495.1556 905.2926,478.3076 C896.8357,490.8439 884.656,494.4746 875.6617,478.8735 C865.5539,493.7207 849.4947,490.3782 842.8773,475.0779 C826.4022,489.9409 811.571,487.9081 804.1667,465.625 C808.8238,464.8578 810.3987,466.5254 809.1982,471.1209 C792.113,463.3425 788.2442,449.8096 801.2436,435.3424 C787.1424,428.632 783.5708,416.7558 795.4757,405.0875 C782.9917,393.2766 784.6323,377.1932 801.7405,370.7872 C779.9453,353.1272 789.9383,334.2945 811.4583,326.0417 C812.6073,325.9465 812.9211,326.7073 812.6042,327.654 " style="stroke:#FFFFFF;stroke-width:1.0416666666666667;fill:none;"/><text fill="#FFFFFF" font-family="&quot;Verdana&quot;" font-size="20.8333" font-weight="bold" lengthAdjust="spacing" textLength="114.5833" x="965.1042" y="361.0046">3rd party</text><text fill="#FFFFFF" font-family="&quot;Verdana&quot;" font-size="20.8333" font-weight="bold" lengthAdjust="spacing" textLength="175" x="934.8958" y="385.2559">cluster add-on</text><!--MD5=[30afa6242ed7a9da9c35c8eba5ba651d]
cluster Kubernetes--><rect height="695.8333" rx="7.8125" ry="7.8125" style="stroke:#F3F3F3;stroke-width:1.0416666666666667;fill:none;" width="753.125" x="17.7083" y="17.7083"/><text fill="#FFFFFF" font-family="&quot;Verdana&quot;" font-size="20.8333" font-weight="bold" lengthAdjust="spacing" textLength="142.7083" x="322.9167" y="49.5463">Kubernetes</text><!--MD5=[6a449d165e7288571682c9f52c1007ed]
cluster apiserver--><rect height="139.5833" rx="7.8125" ry="7.8125" style="stroke:#F3F3F3;stroke-width:1.0416666666666667;fill:none;" width="386.4583" x="133.3333" y="341.6667"/><text fill="#FFFFFF" font-family="&quot;Verdana&quot;" font-size="20.8333" font-weight="bold" lengthAdjust="spacing" textLength="115.625" x="268.75" y="373.5046">apiserver</text><!--MD5=[1346839f4d9afb2d0f5d9392cd5481da]
cluster scheduler--><rect height="156.25" rx="7.8125" ry="7.8125" style="stroke:#F3F3F3;stroke-width:1.0416666666666667;fill:none;" width="226.0417" x="256.25" y="523.9583"/><text fill="#FFFFFF" font-family="&quot;Verdana&quot;" font-size="20.8333" font-weight="bold" lengthAdjust="spacing" textLength="118.75" x="309.8958" y="555.7963">scheduler</text><!--MD5=[d5328c4966d1ca6e16a506ef7f462ad0]
cluster controllermanager--><rect height="139.5833" rx="7.8125" ry="7.8125" style="stroke:#F3F3F3;stroke-width:1.0416666666666667;fill:none;" width="273.9583" x="42.7083" y="90.625"/><text fill="#FFFFFF" font-family="&quot;Verdana&quot;" font-size="20.8333" font-weight="bold" lengthAdjust="spacing" textLength="236.4583" x="61.4583" y="122.463">controller-manager</text><!--MD5=[9687c407887516dc192ba9dafcc7e07b]
cluster kubelet--><rect height="139.5833" rx="7.8125" ry="7.8125" style="stroke:#F3F3F3;stroke-width:1.0416666666666667;fill:none;" width="404.1667" x="341.6667" y="90.625"/><text fill="#FFFFFF" font-family="&quot;Verdana&quot;" font-size="20.8333" font-weight="bold" lengthAdjust="spacing" textLength="93.75" x="496.875" y="122.463">kubelet</text><!--MD5=[1d1022e7f40d29fca5826d38bb5d69bf]
entity vendorcontroller--><rect height="58.6426" rx="7.8125" ry="7.8125" style="stroke:#F3F3F3;stroke-width:2.0833333333333335;fill:none;" width="184.375" x="813.0208" y="406.25"/><text fill="#336699" font-family="&quot;Verdana&quot;" font-size="14.5833" lengthAdjust="spacing" textLength="142.7083" x="833.8542" y="440.6199">resource controller</text><!--MD5=[dd21688696bbed6fb1274309176b0faf]
entity vendornodeplugin--><rect height="58.6426" rx="7.8125" ry="7.8125" style="stroke:#F3F3F3;stroke-width:2.0833333333333335;fill:none;" width="197.9167" x="1034.375" y="406.25"/><text fill="#336699" font-family="&quot;Verdana&quot;" font-size="14.5833" lengthAdjust="spacing" textLength="156.25" x="1055.2083" y="440.6199">resource node plugin</text><!--MD5=[825324b7f558f659a104b3dc0e220d0f]
entity Pod--><path d="M150.5208,414.0625 L150.5208,457.0801 A7.8125,7.8125 0 0 0 158.3333,464.8926 L212.5,464.8926 A7.8125,7.8125 0 0 0 220.3125,457.0801 L220.3125,416.6667 L209.8958,406.25 L158.3333,406.25 A7.8125,7.8125 0 0 0 150.5208,414.0625 " fill="url(#gjocp24enthc60)" style="stroke:#A8A8A8;stroke-width:1.0416666666666667;"/><path d="M209.8958,406.25 L209.8958,408.8542 A7.8125,7.8125 0 0 0 217.7083,416.6667 L220.3125,416.6667 " fill="url(#gjocp24enthc60)" style="stroke:#A8A8A8;stroke-width:1.0416666666666667;"/><text fill="#FFFFFF" font-family="&quot;Verdana&quot;" font-size="14.5833" lengthAdjust="spacing" textLength="28.125" x="171.3542" y="440.6199">Pod</text><!--MD5=[c6d13f07182e2351a4c41a35e49756d3]
entity otherapi--><path d="M256.7708,414.0625 L256.7708,457.0801 A7.8125,7.8125 0 0 0 264.5833,464.8926 L306.25,464.8926 A7.8125,7.8125 0 0 0 314.0625,457.0801 L314.0625,416.6667 L303.6458,406.25 L264.5833,406.25 A7.8125,7.8125 0 0 0 256.7708,414.0625 " fill="url(#gjocp24enthc60)" style="stroke:#A8A8A8;stroke-width:1.0416666666666667;"/><path d="M303.6458,406.25 L303.6458,408.8542 A7.8125,7.8125 0 0 0 311.4583,416.6667 L314.0625,416.6667 " fill="url(#gjocp24enthc60)" style="stroke:#A8A8A8;stroke-width:1.0416666666666667;"/><text fill="#FFFFFF" font-family="&quot;Verdana&quot;" font-size="14.5833" lengthAdjust="spacing" textLength="15.625" x="277.6042" y="440.6199">...</text><!--MD5=[0caca760b2b8a6b5b7be12a2a89afc05]
entity ResourceClaim--><path d="M351.0417,414.0625 L351.0417,457.0801 A7.8125,7.8125 0 0 0 358.8542,464.8926 L495.3125,464.8926 A7.8125,7.8125 0 0 0 503.125,457.0801 L503.125,416.6667 L492.7083,406.25 L358.8542,406.25 A7.8125,7.8125 0 0 0 351.0417,414.0625 " fill="url(#gjocp24enthc60)" style="stroke:#A8A8A8;stroke-width:1.0416666666666667;"/><path d="M492.7083,406.25 L492.7083,408.8542 A7.8125,7.8125 0 0 0 500.5208,416.6667 L503.125,416.6667 " fill="url(#gjocp24enthc60)" style="stroke:#A8A8A8;stroke-width:1.0416666666666667;"/><text fill="#FFFFFF" font-family="&quot;Verdana&quot;" font-size="14.5833" lengthAdjust="spacing" textLength="110.4167" x="371.875" y="440.6199">ResourceClaim</text><!--MD5=[78a175b168b74c0adec3953d7ef16f8f]
entity k8sresourceplugin--><rect height="58.6426" rx="7.8125" ry="7.8125" style="stroke:#F3F3F3;stroke-width:2.0833333333333335;fill:none;" width="156.25" x="301.0417" y="596.875"/><text fill="#336699" font-family="&quot;Verdana&quot;" font-size="14.5833" lengthAdjust="spacing" textLength="114.5833" x="321.875" y="631.2449">resource plugin</text><!--MD5=[90eef232d02e2b2acff627f901dbda00]
entity k8sresourceclaimcontroller--><rect height="58.6426" rx="7.8125" ry="7.8125" style="stroke:#F3F3F3;stroke-width:2.0833333333333335;fill:none;" width="228.125" x="71.3542" y="155.2083"/><text fill="#336699" font-family="&quot;Verdana&quot;" font-size="14.5833" lengthAdjust="spacing" textLength="186.4583" x="92.1875" y="189.5782">resource claim controller</text><!--MD5=[04400e9409c1a81fafb175350e297fa6]
entity pluginmanager--><rect height="58.6426" rx="7.8125" ry="7.8125" style="stroke:#F3F3F3;stroke-width:2.0833333333333335;fill:none;" width="157.2917" x="358.8542" y="155.2083"/><text fill="#336699" font-family="&quot;Verdana&quot;" font-size="14.5833" lengthAdjust="spacing" textLength="115.625" x="379.6875" y="189.5782">plugin manager</text><!--MD5=[c091db1669938f46da442302e548e7be]
entity resourcemanager--><rect height="58.6426" rx="7.8125" ry="7.8125" style="stroke:#F3F3F3;stroke-width:2.0833333333333335;fill:none;" width="176.0417" x="552.6042" y="155.2083"/><text fill="#336699" font-family="&quot;Verdana&quot;" font-size="14.5833" lengthAdjust="spacing" textLength="134.375" x="573.4375" y="189.5782">resource manager</text><!--MD5=[3f0837bc815ece98ef2bb5fbce714c9f]
link vendorcontroller to vendornodeplugin--><!--MD5=[e5d4e5ba63c52082584a04285cbb68d4]
link Pod to otherapi--><!--MD5=[9b05b381b794c5da97d12dcb51ed74cb]
link otherapi to ResourceClaim--><!--MD5=[982a0d768f1a4e021d09551cb2018a3f]
reverse link k8sresourceclaimcontroller to Pod--><path d="M185.4167,219.2156 C185.4167,268.7135 185.4167,360.0313 185.4167,406.149 " fill="none" id="k8sresourceclaimcontroller-backto-Pod" style="stroke:#E2E2E2;stroke-width:3.125;"/><polygon fill="#E2E2E2" points="185.4167,213.975,181.25,223.35,185.4167,219.1833,189.5833,223.35,185.4167,213.975" style="stroke:#E2E2E2;stroke-width:3.125;"/><text fill="#303030" font-family="&quot;Verdana&quot;" font-size="13.5417" lengthAdjust="spacing" textLength="157.2917" x="196.875" y="270.903">read resource template</text><text fill="#303030" font-family="&quot;Verdana&quot;" font-size="13.5417" lengthAdjust="spacing" textLength="96.875" x="227.0833" y="286.6664">from Pod spec</text><!--MD5=[8d47d0e0d9256e4c2e63c05c87794cb5]
link k8sresourceclaimcontroller to ResourceClaim--><path d="M264.5344,213.6052 C289.125,222.0187 316.4083,231 341.6667,238.5417 C355.8688,242.7823 363.3552,236.5188 373.9583,246.875 C415.7688,287.7125 425.3427,358.8115 427.1479,400.7375 " fill="none" id="k8sresourceclaimcontroller-to-ResourceClaim" style="stroke:#E2E2E2;stroke-width:3.125;"/><polygon fill="#E2E2E2" points="427.3469,406.2031,431.1706,396.6831,427.1579,400.9982,422.8428,396.9855,427.3469,406.2031" style="stroke:#E2E2E2;stroke-width:3.125;"/><text fill="#303030" font-family="&quot;Verdana&quot;" font-size="13.5417" lengthAdjust="spacing" textLength="42.7083" x="419.7917" y="278.7155">create</text><!--MD5=[a46ccd37cc6ea5160289e7ab91f06659]
link Pod to scheduler--><path d="M199.3708,469.6906 C210.549,496.3125 226.5109,534.3273 239.8448,566.0832 C243.1783,574.0222 246.3475,581.5699 249.2366,588.4507 C250.6812,591.8911 252.0557,595.1648 253.3458,598.2372 C253.9908,599.7734 254.6147,601.2593 255.2157,602.6906 C255.5162,603.4062 255.8109,604.1082 256.0997,604.796 " fill="none" id="Pod-scheduler" style="stroke:#E2E2E2;stroke-width:3.125;"/><polygon fill="#E2E2E2" points="256.0997,604.796,256.312,594.539,254.0834,599.9938,248.6285,597.7651,256.0997,604.796" style="stroke:#E2E2E2;stroke-width:3.125;"/><polygon fill="#E2E2E2" points="197.2688,464.6854,197.0565,474.9424,199.2852,469.4876,204.74,471.7162,197.2688,464.6854" style="stroke:#E2E2E2;stroke-width:3.125;"/><!--MD5=[0039883b545247e65479470c5d4831d3]
link ResourceClaim to k8sresourceplugin--><path d="M418.599,469.8438 C409.9083,504.0365 396.4719,556.9063 387.7479,591.2354 " fill="none" id="ResourceClaim-k8sresourceplugin" style="stroke:#E2E2E2;stroke-width:3.125;"/><polygon fill="#E2E2E2" points="386.3896,596.5802,392.7369,588.5203,387.6724,591.5323,384.6603,586.4678,386.3896,596.5802" style="stroke:#E2E2E2;stroke-width:3.125;"/><polygon fill="#E2E2E2" points="419.9094,464.6854,413.5598,472.7436,418.6252,469.7329,421.6358,474.7983,419.9094,464.6854" style="stroke:#E2E2E2;stroke-width:3.125;"/><!--MD5=[fa1108eaf13ac1d69ce7162fdfba6bf5]
link ResourceClaim to vendorcontroller--><path d="M508.6365,435.4167 C608.2906,435.4167 707.9448,435.4167 807.599,435.4167 " fill="none" id="ResourceClaim-vendorcontroller" style="stroke:#E2E2E2;stroke-width:3.125;"/><polygon fill="#E2E2E2" points="812.949,435.4167,803.574,431.25,807.7406,435.4167,803.574,439.5833,812.949,435.4167" style="stroke:#E2E2E2;stroke-width:3.125;"/><polygon fill="#E2E2E2" points="503.1906,435.4167,512.5656,439.5833,508.399,435.4167,512.5656,431.25,503.1906,435.4167" style="stroke:#E2E2E2;stroke-width:3.125;"/><!--MD5=[8b43d783065e745b3c78ced736782ecd]
link pluginmanager to vendornodeplugin--><path d="M486.4854,216.2719 C501.401,224.5573 518.1521,232.799 534.375,238.5417 C681.6167,290.6594 725.1406,282.324 880.2083,301.0417 C910.1406,304.6552 988.3271,296.576 1015.625,309.375 C1058.0729,329.2771 1092.7917,371.9 1113.25,401.8177 " fill="none" id="pluginmanager-vendornodeplugin" style="stroke:#E2E2E2;stroke-width:3.125;"/><polygon fill="#E2E2E2" points="1116.1667,406.1354,1114.3716,396.0345,1113.2512,401.8195,1107.4661,400.6992,1116.1667,406.1354" style="stroke:#E2E2E2;stroke-width:3.125;"/><polygon fill="#E2E2E2" points="481.9177,213.7021,488.0452,221.9304,486.4569,216.256,492.1314,214.6677,481.9177,213.7021" style="stroke:#E2E2E2;stroke-width:3.125;"/><!--MD5=[d3fe6cacefaea3b19b9bbf67da9ae812]
link resourcemanager to vendornodeplugin--><path d="M734.1646,202.8115 C813.626,220.6333 928.3438,253.7573 1015.625,309.375 C1054.0417,333.8563 1088.5417,373.6542 1110.1042,401.7583 " fill="none" id="resourcemanager-vendornodeplugin" style="stroke:#E2E2E2;stroke-width:3.125;"/><polygon fill="#E2E2E2" points="1113.4583,406.1646,1111.1085,396.1781,1110.3091,402.0162,1104.471,401.2168,1113.4583,406.1646" style="stroke:#E2E2E2;stroke-width:3.125;"/><polygon fill="#E2E2E2" points="728.9823,201.6604,737.229,207.7631,734.0664,202.7912,739.0383,199.6286,728.9823,201.6604" style="stroke:#E2E2E2;stroke-width:3.125;"/><!--MD5=[014ae6b64a3353d57cb20740dce70c7e]
@startuml
!theme lightgray
skinparam componentStyle rectangle

cloud "3rd party\ncluster add-on" as 3rdparty {
  component "resource controller" as vendorcontroller
  component "resource node plugin" as vendornodeplugin
}

component Kubernetes {
  component apiserver {
      file Pod
      file "..." as otherapi
      file ResourceClaim
  }
  component scheduler {
    component "resource plugin" as k8sresourceplugin
  }
  component "controller-manager" as controllermanager {
    component "resource claim controller" as k8sresourceclaimcontroller
  }
  component kubelet {
    component "plugin manager" as pluginmanager
    component "resource manager" as resourcemanager
  }
}

vendorcontroller -[hidden]> vendornodeplugin
Pod -[hidden]> otherapi
otherapi -[hidden]> ResourceClaim

Pod -u-> k8sresourceclaimcontroller: read resource template\nfrom Pod spec
ResourceClaim <-u- k8sresourceclaimcontroller: create

Pod <- -> scheduler
ResourceClaim <- -> k8sresourceplugin

ResourceClaim <-> vendorcontroller
pluginmanager <-> vendornodeplugin
resourcemanager <-> vendornodeplugin
@enduml

@startuml



skinparam backgroundColor transparent
skinparam useBetaStyle false






<style>
  root {
    BackgroundColor transparent
    FontColor #336699
    HyperLinkColor $ORANGE
    LineColor #888888
    LineThickness 1
    Margin 10
    Padding 6
    Shadowing 0.0
  }
  node {
   Padding 15
   roundcorner 20
   BackgroundColor #e2e2e2-#888888
  }
  caption {
    LineThickness 0
  }
  footer {
    LineThickness 0
  }
  groupHeader {
    BackgroundColor #d2d2d2
    FontColor #336699
    FontStyle bold
  }
  header {
    LineThickness 0
  }
  referenceHeader {
    BackgroundColor transparent
    FontColor #303030
    FontStyle bold
  }
  separator {
    BackgroundColor #303030
    FontColor transparent
    FontStyle bold
  }
  title {
	FontSize 20
	BorderRoundCorner            8
	BorderThickness 	         1
	BackgroundColor  #dbdbdb-#d2d2d2
	FontColor #e2e2e2
	BorderColor #d2d2d2
  }
  nwdiagDiagram {
	network {
			FontColor #336699
	BorderColor #f3f3f3
	BackgroundColor #f3f3f3-#e2e2e2    
		LineColor #e2e2e2
		LineThickness 1.0
		FontColor #888888
	}
	server {
			FontColor #336699
	BorderColor #f3f3f3
	BackgroundColor #f3f3f3-#e2e2e2
	}
	arrow {
		FontColor #888888
		LineColor #888888
	}
	group {
		BackGroundColor #fcfcfc
		LineColor $LIGHT_DARK
		LineThickness 2.0
		Margin 5
		Padding 5
	}
  }
  ganttDiagram {
	task {
			FontColor #336699
	BorderColor #f3f3f3
	BackgroundColor #f3f3f3-#e2e2e2
		LineColor #e2e2e2
		Margin 10
		Padding 6
	}
	note {
		FontColor #FFF
		LineColor #29527a
		BackGroundColor #336699
	}
	separator {
		LineColor #d2d2d2
		BackGroundColor #d2d2d2-#a8a8a8
		FontColor white
	}
	milestone {
		FontColor #336699
		FontSize 16
		FontStyle italic
		BackGroundColor #d2d2d2
		LineColor #a8a8a8
	}
	timeline {
		BackgroundColor #d2d2d2
		FontColor white
	}
	closed {
		BackgroundColor #cc8b35
		FontColor #FFF
	}
  }
</style>
skinparam defaultFontName        "Verdana"
skinparam defaultFontSize        12
skinparam dpi                    100
skinparam shadowing              false
skinparam roundcorner            15
skinparam ParticipantPadding     30
skinparam BoxPadding             30
skinparam Padding                10
skinparam ArrowColor             #737373
skinparam stereotype {
    CBackgroundColor #dbdbdb
    CBorderColor #a8a8a8
    ABackgroundColor #5cad5c
    ABorderColor #297a29
    IBackgroundColor #ff5c5c
    IBorderColor #cc2929
    EBackgroundColor #ffbe68
    EBorderColor #cc8b35
    NBackgroundColor #5c85ad
    NBorderColor #29527a
}
skinparam title {
	FontColor	                 white
	BorderColor	                 #d2d2d2
	FontSize	    	         20
	BorderRoundCorner            8
	BorderThickness 	         1
	BackgroundColor              #dbdbdb-#d2d2d2
}


skinparam legend {
	BackgroundColor #e2e2e2
	BorderColor #888888
	FontColor #336699
}

skinparam swimlane {
	BorderColor #336699
	BorderThickness 2
	TitleBackgroundColor  #dbdbdb-#d2d2d2
	TitleFontColor #e2e2e2
}


skinparam activity {
		FontColor #336699
	BorderColor #f3f3f3
	BackgroundColor #f3f3f3-#e2e2e2
	BarColor #339933
	StartColor #336699
	EndColor #336699
	DiamondBackgroundColor #d2d2d2-#a8a8a8
  	DiamondBorderColor #a8a8a8
	DiamondFontColor white
}


skinparam participant {
		FontColor #336699
	BorderColor #f3f3f3
	BackgroundColor #f3f3f3-#e2e2e2
	ParticipantBorderThickness 2
}


skinparam actor {
		FontColor #336699
	BorderColor #f3f3f3
	BackgroundColor #f3f3f3-#e2e2e2
}


skinparam arrow {
	Thickness 3
	Color #e2e2e2
	FontColor #303030
}


skinparam sequence {
	BorderColor #e2e2e2
	TitleFontColor white
	BackgroundColor transparent
	StartColor #e2e2e2
	EndColor #e2e2e2
	BoxBackgroundColor #fcfcfc
	BoxBorderColor #737373
	BoxFontColor #303030
	DelayFontColor #303030
	LifeLineBorderColor #a8a8a8
	LifeLineBorderThickness 2
	LifeLineBackgroundColor #dbdbdb
	GroupBorderColor #737373
	GroupFontColor #303030
	GroupHeaderFontColor #336699
	DividerBackgroundColor #FFF-#fcfcfc
    DividerBorderColor #737373
    DividerBorderThickness 2
    DividerFontColor #303030
	ReferenceBackgroundColor transparent
	ReferenceBorderColor #737373
	ReferenceFontColor #303030
	ReferenceHeaderFontColor #336699
	StereotypeFontColor #336699
}


skinparam partition {
	BorderColor #e2e2e2
	FontColor #888888
	BackgroundColor transparent
}


skinparam collections {
		FontColor #336699
	BorderColor #f3f3f3
	BackgroundColor #f3f3f3-#e2e2e2
}


skinparam control {
		FontColor #336699
	BorderColor #f3f3f3
	BackgroundColor #f3f3f3-#e2e2e2
}


skinparam entity {
		FontColor #336699
	BorderColor #f3f3f3
	BackgroundColor #f3f3f3-#e2e2e2
}


skinparam boundary {
		FontColor #336699
	BorderColor #f3f3f3
	BackgroundColor #f3f3f3-#e2e2e2
}


skinparam agent {
	BackgroundColor #orange
	BorderColor #999999
	FontColor #333333
}


skinparam note {
	BorderThickness 1
	BackgroundColor #5c85ad-#336699
	BorderColor #336699
	FontColor #FFF
}


skinparam artifact {
	BackgroundColor white-#fcfcfc
	BorderColor #a8a8a8
	FontColor #a8a8a8
}


skinparam component {
		FontColor #336699
	BorderColor #f3f3f3
	BackgroundColor #f3f3f3-#e2e2e2
}


skinparam interface {
	BackgroundColor  #ff5c5c
	BorderColor  #ff3333
	FontColor #303030
}


skinparam storage {
	BackgroundColor #ffbe68-#ffae42
  	BorderColor #ffae42
	FontColor #FFF
}


skinparam node {
	BackgroundColor transparent
	BorderColor #f3f3f3
	FontColor #336699
}


skinparam cloud {
	BackgroundColor #F2FCFE-#eeeeee
	BorderColor $F2FCFE
	FontColor #336699
}


skinparam database {
		FontColor #336699
	BorderColor #f3f3f3
	BackgroundColor #f3f3f3-#e2e2e2
	BackgroundColor  transparent
}


skinparam class {
		FontColor #336699
	BorderColor #f3f3f3
	BackgroundColor #f3f3f3-#e2e2e2
	HeaderBackgroundColor #f3f3f3-#888888
	StereotypeFontColor #303030
	StereotypeFontSize 9
	BorderThickness 1
	AttributeFontColor #303030
	AttributeFontSize 11
}


skinparam object {
		FontColor #336699
	BorderColor #f3f3f3
	BackgroundColor #f3f3f3-#e2e2e2
	StereotypeFontColor #fcfcfc
	BorderThickness 1
	AttributeFontColor #303030
	AttributeFontSize 11
}


skinparam usecase {
		FontColor #336699
	BorderColor #f3f3f3
	BackgroundColor #f3f3f3-#e2e2e2
	BorderThickness 2
	StereotypeFontColor #e2e2e2
}


skinparam rectangle {
		FontColor #336699
	BorderColor #f3f3f3
	BackgroundColor #f3f3f3-#e2e2e2
	BackgroundColor transparent
	BorderThickness 2
	StereotypeFontColor #e2e2e2
}


skinparam package {
		FontColor #336699
	BorderColor #f3f3f3
	BackgroundColor #f3f3f3-#e2e2e2
	BackgroundColor transparent
	BorderThickness 2
}


skinparam folder {
	BackgroundColor #f3f3f3
  	BorderColor #ffae42
	FontColor #ffae42
	BorderThickness 2
}


skinparam frame {
	BackgroundColor #f3f3f3
  	BorderColor #336699
	FontColor #336699
	BorderThickness 2
}


skinparam state {
		FontColor #336699
	BorderColor #f3f3f3
	BackgroundColor #f3f3f3-#e2e2e2
	BorderColor #888888
	StartColor #336699
	EndColor #336699
	AttributeFontColor white
	AttributeFontSize 11
}


skinparam queue {
		FontColor #336699
	BorderColor #f3f3f3
	BackgroundColor #f3f3f3-#e2e2e2
}


skinparam card {
	BackgroundColor #5c85ad-#336699
	BorderColor #336699
	FontColor #FFF
}


skinparam file {
	BackgroundColor #dbdbdb-#d2d2d2
	BorderColor #a8a8a8
	FontColor white

}


skinparam stack {
		FontColor #336699
	BorderColor #f3f3f3
	BackgroundColor #f3f3f3-#e2e2e2
}
skinparam componentStyle rectangle

cloud "3rd party\ncluster add-on" as 3rdparty {
  component "resource controller" as vendorcontroller
  component "resource node plugin" as vendornodeplugin
}

component Kubernetes {
  component apiserver {
      file Pod
      file "..." as otherapi
      file ResourceClaim
  }
  component scheduler {
    component "resource plugin" as k8sresourceplugin
  }
  component "controller-manager" as controllermanager {
    component "resource claim controller" as k8sresourceclaimcontroller
  }
  component kubelet {
    component "plugin manager" as pluginmanager
    component "resource manager" as resourcemanager
  }
}

vendorcontroller -[hidden]> vendornodeplugin
Pod -[hidden]> otherapi
otherapi -[hidden]> ResourceClaim

Pod -u-> k8sresourceclaimcontroller: read resource template\nfrom Pod spec
ResourceClaim <-u- k8sresourceclaimcontroller: create

Pod <- -> scheduler
ResourceClaim <- -> k8sresourceplugin

ResourceClaim <-> vendorcontroller
pluginmanager <-> vendornodeplugin
resourcemanager <-> vendornodeplugin
@enduml

PlantUML version 1.2021.16beta3(Unknown compile time)
(GPL source distribution)
Java Runtime: Java(TM) SE Runtime Environment
JVM: Java HotSpot(TM) 64-Bit Server VM
Default Encoding: UTF-8
Language: en
Country: US
--></g></svg>